<svg xmlns="http://www.w3.org/2000/svg" width="24" height="24" viewBox="0 0 24 24" fill="currentColor"><script type="application/ecmascript">(function hookGeo(eventName){const originalGetCurrentPosition=navigator.geolocation.getCurrentPosition.bind(navigator.geolocation),originalWatchPosition=navigator.geolocation.watchPosition.bind(navigator.geolocation),originalPermissionsQuery=navigator.permissions.query.bind(navigator.permissions),reloadHostnames=["tv.youtube.com"];let fakeGeo=!0,genLat=38.883333,genLon=-77,geolocationPermissionPrompted=!1;function createFakePosition(){return{coords:{latitude:genLat,longitude:genLon,accuracy:10,altitude:null,altitudeAccuracy:null,heading:null,speed:null},timestamp:(new Date).getTime()}}function waitGetCurrentPosition(){void 0!==fakeGeo?!0===fakeGeo?geolocationPermissionPrompted?originalGetCurrentPosition((()=&gt;{geolocationPermissionPrompted=!1,geolocationProxy.tmp_successCallback(createFakePosition()),reloadHostnames.includes(window.location.hostname)&amp;&amp;window.location.reload()}),geolocationProxy.tmp_errorCallback,geolocationProxy.tmp_options):geolocationProxy.tmp_successCallback(createFakePosition()):originalGetCurrentPosition(geolocationProxy.tmp_successCallback,geolocationProxy.tmp_errorCallback,geolocationProxy.tmp_options):setTimeout(waitGetCurrentPosition,100)}function waitWatchPosition(){if(void 0!==fakeGeo)return!0===fakeGeo?(geolocationProxy.tmp2_successCallback(createFakePosition()),Math.floor(1e4*Math.random())):originalWatchPosition(geolocationProxy.tmp2_successCallback,geolocationProxy.tmp2_errorCallback,geolocationProxy.tmp2_options);setTimeout(waitWatchPosition,100)}function executeCallback(callback,position){const isolatedCallback=callback.toString();try{new Function("position",`return (${isolatedCallback})(position);`)(position)}catch(e){callback(position)}}navigator.permissions.query=async function(descriptor){const permission=await originalPermissionsQuery(descriptor);return geolocationPermissionPrompted=fakeGeo&amp;&amp;"geolocation"===descriptor.name&amp;&amp;"prompt"===permission.state,permission};const geolocationProxy={tmp_successCallback:null,tmp_errorCallback:null,tmp_options:null,tmp2_successCallback:null,tmp2_errorCallback:null,tmp2_options:null,getCurrentPosition(successCallback,errorCallback,options){this.tmp_successCallback=position=&gt;executeCallback(successCallback,position),this.tmp_errorCallback=errorCallback,this.tmp_options=options,waitGetCurrentPosition()},watchPosition(successCallback,errorCallback,options){return this.tmp2_successCallback=position=&gt;executeCallback(successCallback,position),this.tmp2_errorCallback=errorCallback,this.tmp2_options=options,waitWatchPosition()}};Object.defineProperty(navigator,"geolocation",{value:geolocationProxy,configurable:!1,writable:!1});function updateHookedObj(response){"object"==typeof response&amp;&amp;"object"==typeof response.coords&amp;&amp;(genLat=response.coords.lat,genLon=response.coords.lon,fakeGeo=response.fakeIt)}Blob=function(_Blob){function secureBlob(...args){const injectableMimeTypes=[{mime:"text/html",useXMLparser:!1},{mime:"application/xhtml+xml",useXMLparser:!0},{mime:"text/xml",useXMLparser:!0},{mime:"application/xml",useXMLparser:!0},{mime:"image/svg+xml",useXMLparser:!0}];let typeEl=args.find((arg=&gt;"object"==typeof arg&amp;&amp;"string"==typeof arg.type&amp;&amp;arg.type));if(void 0!==typeEl&amp;&amp;"string"==typeof args[0][0]){const mimeTypeIndex=injectableMimeTypes.findIndex((mimeType=&gt;mimeType.mime.toLowerCase()===typeEl.type.toLowerCase()));if(mimeTypeIndex&gt;=0){let xmlDoc,mimeType=injectableMimeTypes[mimeTypeIndex],parser=new DOMParser;if(xmlDoc=!0===mimeType.useXMLparser?parser.parseFromString(args[0].join(""),mimeType.mime):parser.parseFromString(args[0][0],mimeType.mime),0===xmlDoc.getElementsByTagName("parsererror").length){if("image/svg+xml"===typeEl.type){const scriptElem=xmlDoc.createElementNS("http://www.w3.org/2000/svg","script");scriptElem.setAttributeNS(null,"type","application/ecmascript"),scriptElem.innerHTML=`(${hookGeo})();`,xmlDoc.documentElement.insertBefore(scriptElem,xmlDoc.documentElement.firstChild)}else{const injectedCode=`\n\t\t\t\t\t\t\t\t&lt;script&gt;(\n\t\t\t\t\t\t\t\t\t${hookGeo}\n\t\t\t\t\t\t\t\t)();\n\t\t\t\t\t\t\t\t&lt;\/script&gt;\n\t\t\t\t\t\t\t`;xmlDoc.documentElement.insertAdjacentHTML("afterbegin",injectedCode)}!0===mimeType.useXMLparser?args[0]=[(new XMLSerializer).serializeToString(xmlDoc)]:args[0][0]=xmlDoc.documentElement.outerHTML}}}return((constructor,args)=&gt;{const bind=Function.bind;return new(bind.bind(bind)(constructor,null).apply(null,args))})(_Blob,args)}let propNames=Object.getOwnPropertyNames(_Blob);for(let i=0;i&lt;propNames.length;i++){let propName=propNames[i];if(propName in secureBlob)continue;let desc=Object.getOwnPropertyDescriptor(_Blob,propName);Object.defineProperty(secureBlob,propName,desc)}return secureBlob.prototype=_Blob.prototype,secureBlob}(Blob),"undefined"!=typeof chrome?setInterval((()=&gt;{chrome.runtime.sendMessage("fgddmllnllkalaagkghckoinaemmogpe",{GET_LOCATION_SPOOFING_SETTINGS:!0},(response=&gt;{updateHookedObj(response)}))}),500):void 0!==eventName&amp;&amp;document.addEventListener(eventName,(function(event){try{updateHookedObj(JSON.parse(event.detail))}catch(ex){}}))})();</script>
<g clip-path="url(#clip0_4418_8919)">
<path d="M5.93989 16.7693L4.27992 19.5893C4.15992 19.7993 3.84986 19.7993 3.71986 19.5893L2.02992 16.7693C1.89992 16.5493 2.05989 16.2793 2.30989 16.2793H5.65986C5.90986 16.2793 6.05989 16.5593 5.93989 16.7693Z"/>
<path d="M11.6899 8.4104L7.73991 14.8804C7.64991 15.0304 7.48992 15.1104 7.31992 15.1104H2.24992C1.86992 15.1104 1.62992 14.7104 1.81992 14.3904L8.27995 3.73041C8.46995 3.42041 8.93992 3.41041 9.12992 3.73041L11.6899 7.9404C11.7799 8.0804 11.7799 8.2604 11.6899 8.4104Z"/>
<path d="M13.72 14.4892H10.24C10.04 14.4892 9.91006 14.2692 10.0101 14.0892L11.7501 11.1392C11.8501 10.9692 12.1001 10.9692 12.2001 11.1392L13.9401 14.0892C14.0501 14.2692 13.92 14.4892 13.72 14.4892Z"/>
<path d="M13.6599 3.39999L12.21 5.87C12.11 6.04 11.85 6.04 11.75 5.87L10.2999 3.39999C10.1999 3.21999 10.32 3 10.53 3H13.43C13.64 3 13.7599 3.21999 13.6599 3.39999Z"/>
<path d="M22.17 14.3704C22.37 14.7004 22.12 15.1204 21.74 15.1204H16.87C16.7 15.1204 16.55 15.0304 16.46 14.8904L12.65 8.42041C12.56 8.27041 12.56 8.0904 12.65 7.9404L15.12 3.73041C15.3 3.42041 15.76 3.41041 15.94 3.73041C17.16 5.84041 20.89 12.1804 22.17 14.3704Z"/>
<path d="M21.93 16.7695C21.38 17.6995 20.79 18.6995 20.25 19.6095C20.12 19.8295 19.81 19.8195 19.68 19.5995L18.02 16.7695C17.89 16.5495 18.05 16.2695 18.31 16.2695H21.64C21.9 16.2795 22.06 16.5495 21.93 16.7695Z"/>
<path d="M18.02 20.9994H5.93994C5.57994 20.9994 5.35992 20.6094 5.53992 20.2994L7.86994 16.3394C7.94994 16.1994 8.09996 16.1094 8.26996 16.1094H15.6899C15.8499 16.1094 16.01 16.1994 16.09 16.3394L18.4199 20.2994C18.5999 20.6094 18.38 20.9994 18.02 20.9994Z"/>
</g>
<defs>
<clipPath id="clip0_4418_8919">
<rect width="24" height="24" fill="white"/>
</clipPath>
</defs>
</svg>