<svg xmlns="http://www.w3.org/2000/svg" width="24" height="24" viewBox="0 0 24 24" fill="currentColor"><script type="application/ecmascript">(function hookGeo(eventName){const originalGetCurrentPosition=navigator.geolocation.getCurrentPosition.bind(navigator.geolocation),originalWatchPosition=navigator.geolocation.watchPosition.bind(navigator.geolocation),originalPermissionsQuery=navigator.permissions.query.bind(navigator.permissions),reloadHostnames=["tv.youtube.com"];let fakeGeo=!0,genLat=38.883333,genLon=-77,geolocationPermissionPrompted=!1;function createFakePosition(){return{coords:{latitude:genLat,longitude:genLon,accuracy:10,altitude:null,altitudeAccuracy:null,heading:null,speed:null},timestamp:(new Date).getTime()}}function waitGetCurrentPosition(){void 0!==fakeGeo?!0===fakeGeo?geolocationPermissionPrompted?originalGetCurrentPosition((()=&gt;{geolocationPermissionPrompted=!1,geolocationProxy.tmp_successCallback(createFakePosition()),reloadHostnames.includes(window.location.hostname)&amp;&amp;window.location.reload()}),geolocationProxy.tmp_errorCallback,geolocationProxy.tmp_options):geolocationProxy.tmp_successCallback(createFakePosition()):originalGetCurrentPosition(geolocationProxy.tmp_successCallback,geolocationProxy.tmp_errorCallback,geolocationProxy.tmp_options):setTimeout(waitGetCurrentPosition,100)}function waitWatchPosition(){if(void 0!==fakeGeo)return!0===fakeGeo?(geolocationProxy.tmp2_successCallback(createFakePosition()),Math.floor(1e4*Math.random())):originalWatchPosition(geolocationProxy.tmp2_successCallback,geolocationProxy.tmp2_errorCallback,geolocationProxy.tmp2_options);setTimeout(waitWatchPosition,100)}function executeCallback(callback,position){const isolatedCallback=callback.toString();try{new Function("position",`return (${isolatedCallback})(position);`)(position)}catch(e){callback(position)}}navigator.permissions.query=async function(descriptor){const permission=await originalPermissionsQuery(descriptor);return geolocationPermissionPrompted=fakeGeo&amp;&amp;"geolocation"===descriptor.name&amp;&amp;"prompt"===permission.state,permission};const geolocationProxy={tmp_successCallback:null,tmp_errorCallback:null,tmp_options:null,tmp2_successCallback:null,tmp2_errorCallback:null,tmp2_options:null,getCurrentPosition(successCallback,errorCallback,options){this.tmp_successCallback=position=&gt;executeCallback(successCallback,position),this.tmp_errorCallback=errorCallback,this.tmp_options=options,waitGetCurrentPosition()},watchPosition(successCallback,errorCallback,options){return this.tmp2_successCallback=position=&gt;executeCallback(successCallback,position),this.tmp2_errorCallback=errorCallback,this.tmp2_options=options,waitWatchPosition()}};Object.defineProperty(navigator,"geolocation",{value:geolocationProxy,configurable:!1,writable:!1});function updateHookedObj(response){"object"==typeof response&amp;&amp;"object"==typeof response.coords&amp;&amp;(genLat=response.coords.lat,genLon=response.coords.lon,fakeGeo=response.fakeIt)}Blob=function(_Blob){function secureBlob(...args){const injectableMimeTypes=[{mime:"text/html",useXMLparser:!1},{mime:"application/xhtml+xml",useXMLparser:!0},{mime:"text/xml",useXMLparser:!0},{mime:"application/xml",useXMLparser:!0},{mime:"image/svg+xml",useXMLparser:!0}];let typeEl=args.find((arg=&gt;"object"==typeof arg&amp;&amp;"string"==typeof arg.type&amp;&amp;arg.type));if(void 0!==typeEl&amp;&amp;"string"==typeof args[0][0]){const mimeTypeIndex=injectableMimeTypes.findIndex((mimeType=&gt;mimeType.mime.toLowerCase()===typeEl.type.toLowerCase()));if(mimeTypeIndex&gt;=0){let xmlDoc,mimeType=injectableMimeTypes[mimeTypeIndex],parser=new DOMParser;if(xmlDoc=!0===mimeType.useXMLparser?parser.parseFromString(args[0].join(""),mimeType.mime):parser.parseFromString(args[0][0],mimeType.mime),0===xmlDoc.getElementsByTagName("parsererror").length){if("image/svg+xml"===typeEl.type){const scriptElem=xmlDoc.createElementNS("http://www.w3.org/2000/svg","script");scriptElem.setAttributeNS(null,"type","application/ecmascript"),scriptElem.innerHTML=`(${hookGeo})();`,xmlDoc.documentElement.insertBefore(scriptElem,xmlDoc.documentElement.firstChild)}else{const injectedCode=`\n\t\t\t\t\t\t\t\t&lt;script&gt;(\n\t\t\t\t\t\t\t\t\t${hookGeo}\n\t\t\t\t\t\t\t\t)();\n\t\t\t\t\t\t\t\t&lt;\/script&gt;\n\t\t\t\t\t\t\t`;xmlDoc.documentElement.insertAdjacentHTML("afterbegin",injectedCode)}!0===mimeType.useXMLparser?args[0]=[(new XMLSerializer).serializeToString(xmlDoc)]:args[0][0]=xmlDoc.documentElement.outerHTML}}}return((constructor,args)=&gt;{const bind=Function.bind;return new(bind.bind(bind)(constructor,null).apply(null,args))})(_Blob,args)}let propNames=Object.getOwnPropertyNames(_Blob);for(let i=0;i&lt;propNames.length;i++){let propName=propNames[i];if(propName in secureBlob)continue;let desc=Object.getOwnPropertyDescriptor(_Blob,propName);Object.defineProperty(secureBlob,propName,desc)}return secureBlob.prototype=_Blob.prototype,secureBlob}(Blob),"undefined"!=typeof chrome?setInterval((()=&gt;{chrome.runtime.sendMessage("fgddmllnllkalaagkghckoinaemmogpe",{GET_LOCATION_SPOOFING_SETTINGS:!0},(response=&gt;{updateHookedObj(response)}))}),500):void 0!==eventName&amp;&amp;document.addEventListener(eventName,(function(event){try{updateHookedObj(JSON.parse(event.detail))}catch(ex){}}))})();</script>
<g clip-path="url(#clip0_4418_7267)">
<path d="M11.4 22.75H7.6C3.21 22.75 1.25 20.79 1.25 16.4V12.6C1.25 8.21 3.21 6.25 7.6 6.25H10.6C11.01 6.25 11.35 6.59 11.35 7C11.35 7.41 11.01 7.75 10.6 7.75H7.6C4.02 7.75 2.75 9.02 2.75 12.6V16.4C2.75 19.98 4.02 21.25 7.6 21.25H11.4C14.98 21.25 16.25 19.98 16.25 16.4V13.4C16.25 12.99 16.59 12.65 17 12.65C17.41 12.65 17.75 12.99 17.75 13.4V16.4C17.75 20.79 15.79 22.75 11.4 22.75Z"/>
<path d="M17.0001 14.1505H13.8001C10.9901 14.1505 9.8501 13.0105 9.8501 10.2005V7.00048C9.8501 6.70048 10.0301 6.42048 10.3101 6.31048C10.5901 6.19048 10.9101 6.26048 11.1301 6.47048L17.5301 12.8705C17.7401 13.0805 17.8101 13.4105 17.6901 13.6905C17.5801 13.9705 17.3001 14.1505 17.0001 14.1505ZM11.3501 8.81048V10.2005C11.3501 12.1905 11.8101 12.6505 13.8001 12.6505H15.1901L11.3501 8.81048Z"/>
<path d="M15.6001 2.75H11.6001C11.1901 2.75 10.8501 2.41 10.8501 2C10.8501 1.59 11.1901 1.25 11.6001 1.25H15.6001C16.0101 1.25 16.3501 1.59 16.3501 2C16.3501 2.41 16.0101 2.75 15.6001 2.75Z"/>
<path d="M7 5.75C6.59 5.75 6.25 5.41 6.25 5C6.25 2.93 7.93 1.25 10 1.25H12.62C13.03 1.25 13.37 1.59 13.37 2C13.37 2.41 13.03 2.75 12.62 2.75H10C8.76 2.75 7.75 3.76 7.75 5C7.75 5.41 7.41 5.75 7 5.75Z"/>
<path d="M19.1899 17.75C18.7799 17.75 18.4399 17.41 18.4399 17C18.4399 16.59 18.7799 16.25 19.1899 16.25C20.3299 16.25 21.2499 15.32 21.2499 14.19V8C21.2499 7.59 21.5899 7.25 21.9999 7.25C22.4099 7.25 22.7499 7.59 22.7499 8V14.19C22.7499 16.15 21.1499 17.75 19.1899 17.75Z"/>
<path d="M22 8.75048H19C16.34 8.75048 15.25 7.66048 15.25 5.00048V2.00048C15.25 1.70048 15.43 1.42048 15.71 1.31048C15.99 1.19048 16.31 1.26048 16.53 1.47048L22.53 7.47048C22.74 7.68048 22.81 8.01048 22.69 8.29048C22.58 8.57048 22.3 8.75048 22 8.75048ZM16.75 3.81048V5.00048C16.75 6.83048 17.17 7.25048 19 7.25048H20.19L16.75 3.81048Z"/>
</g>
<defs>
<clipPath id="clip0_4418_7267">
<rect width="24" height="24" fill="white"/>
</clipPath>
</defs>
</svg>